# xmcd
#
# Track frame offsets: 
#        150
#        28954
#        50706
#        71622
#        85114
#        107965
#        127866
#        152998
#        169450
#        190873
#
# Disc length: 2883 seconds
#
# Revision: 7
# Processed by: cddbd v1.5.2PL0 Copyright (c) Steve Scherf et al.
# Submitted via: ExactAudioCopy v0.95a5
#
DISCID=8d0b410a
DTITLE=Fayray£®∞À“Ù—π÷∆£© - Fayray°∂COVERS°∑
DYEAR=2005
DGENRE=JPop
TTITLE0=Heaven
TTITLE1=Dreams
TTITLE2=Angel
TTITLE3=The First Time Ever I Saw Your Face
TTITLE4=I Wanna Be Free
TTITLE5=Tiny Dancer
TTITLE6=This Is Love
TTITLE7=Moonchild
TTITLE8=I Believe In You
TTITLE9=The Wind
EXTD=Fayray°∂COVERS°∑\nYEAR: 2005\n∞À“Ù±©¡˙ ’≤ÿ—π÷∆
EXTT0=
EXTT1=
EXTT2=
EXTT3=
EXTT4=
EXTT5=
EXTT6=
EXTT7=
EXTT8=
EXTT9=
PLAYORDER=
